<?xml version="1.0" encoding="utf-8"?>
<!-- Generator: Adobe Illustrator 27.5.0, SVG Export Plug-In . SVG Version: 6.00 Build 0)  -->
<svg version="1.1" preserveAspectRatio="none" xmlns="http://www.w3.org/2000/svg" xmlns:xlink="http://www.w3.org/1999/xlink" x="0px" y="0px"
	 viewBox="0 0 1200 1200" style="enable-background:new 0 0 1200 1200;" xml:space="preserve">
<g id="background">
	<linearGradient id="SVGID_1_" gradientUnits="userSpaceOnUse" x1="600" y1="0.9995" x2="600" y2="1189.6727">
		<stop  offset="0" style="stop-color:#0D84FD"/>
		<stop  offset="0.0313" style="stop-color:#3397FD"/>
		<stop  offset="0.0758" style="stop-color:#63AFFE"/>
		<stop  offset="0.123" style="stop-color:#8DC5FE"/>
		<stop  offset="0.1721" style="stop-color:#B0D7FE"/>
		<stop  offset="0.2236" style="stop-color:#CDE5FF"/>
		<stop  offset="0.2784" style="stop-color:#E3F1FF"/>
		<stop  offset="0.3379" style="stop-color:#F3F9FF"/>
		<stop  offset="0.4057" style="stop-color:#FCFEFF"/>
		<stop  offset="0.5" style="stop-color:#FFFFFF"/>
		<stop  offset="0.5943" style="stop-color:#FCFEFF"/>
		<stop  offset="0.6621" style="stop-color:#F3F9FF"/>
		<stop  offset="0.7216" style="stop-color:#E3F1FF"/>
		<stop  offset="0.7764" style="stop-color:#CDE5FF"/>
		<stop  offset="0.8279" style="stop-color:#B0D7FE"/>
		<stop  offset="0.877" style="stop-color:#8DC5FE"/>
		<stop  offset="0.9242" style="stop-color:#63AFFE"/>
		<stop  offset="0.9687" style="stop-color:#3397FD"/>
		<stop  offset="1" style="stop-color:#0D84FD"/>
	</linearGradient>
	<rect y="-0.893" style="fill:url(#SVGID_1_);" width="1200" height="1200"/>
</g>
<g id="objact">
	<g>
		<defs>
			<rect id="SVGID_00000076566800017190308030000017638313770588719764_" x="0" y="-0.893" width="1200" height="1200"/>
		</defs>
		<clipPath id="SVGID_00000026851102071681556450000002930168503327064713_">
			<use xlink:href="#SVGID_00000076566800017190308030000017638313770588719764_"  style="overflow:visible;"/>
		</clipPath>
		<g style="clip-path:url(#SVGID_00000026851102071681556450000002930168503327064713_);">
			<path style="opacity:0.3;fill:#FFFFFF;" d="M976.029,1172.086c0,10.373,8.409,18.782,18.782,18.782h227.6
				c10.373,0,18.783-8.409,18.783-18.782v-109.979c0-10.373-8.409-18.782-18.783-18.782h-227.6
				c-10.373,0-18.782,8.409-18.782,18.782V1172.086z"/>
			<path style="opacity:0.3;fill:#FFFFFF;" d="M321.63,1179.332c0,8.277,6.71,14.987,14.987,14.987h181.608
				c8.277,0,14.987-6.71,14.987-14.987v-87.755c0-8.277-6.71-14.987-14.987-14.987H336.617c-8.277,0-14.987,6.71-14.987,14.987
				V1179.332z"/>
			<path style="opacity:0.2;fill:#FFFFFF;" d="M581.978,1108.604c0,7.422,6.017,13.439,13.439,13.439h162.849
				c7.422,0,13.439-6.017,13.439-13.439v-78.69c0-7.422-6.017-13.439-13.439-13.439H595.417c-7.422,0-13.439,6.017-13.439,13.439
				V1108.604z"/>
			<path style="opacity:0.2;fill:#FFFFFF;" d="M342.403,1082.267c0,6.341,5.141,11.482,11.482,11.482h139.13
				c6.341,0,11.481-5.141,11.481-11.482v-67.229c0-6.341-5.14-11.482-11.481-11.482h-139.13c-6.341,0-11.482,5.141-11.482,11.482
				V1082.267z"/>
			<path style="opacity:0.3;fill:#FFFFFF;" d="M-48.845,1149.929c0,9.13,7.402,16.532,16.532,16.532h200.326
				c9.13,0,16.532-7.401,16.532-16.532v-96.8c0-9.13-7.402-16.532-16.532-16.532H-32.313c-9.13,0-16.532,7.401-16.532,16.532
				V1149.929z"/>
			<path style="opacity:0.2;fill:#FFFFFF;" d="M1108.611,1214.175c0,6.129,4.968,11.097,11.097,11.097h134.466
				c6.129,0,11.097-4.968,11.097-11.097V1149.2c0-6.128-4.968-11.097-11.097-11.097h-134.466c-6.128,0-11.097,4.968-11.097,11.097
				V1214.175z"/>
			<path style="opacity:0.2;fill:#FFFFFF;" d="M994.01,925.4c0,6.845,5.549,12.394,12.394,12.394h150.185
				c6.845,0,12.394-5.549,12.394-12.394v-72.57c0-6.845-5.549-12.394-12.394-12.394h-150.185c-6.845,0-12.394,5.549-12.394,12.394
				V925.4z"/>
			<path style="opacity:0.3;fill:#FFFFFF;" d="M1051.125,1024.185c0,6.845,5.549,12.394,12.394,12.394h150.184
				c6.845,0,12.394-5.549,12.394-12.394v-72.571c0-6.845-5.549-12.394-12.394-12.394h-150.184c-6.845,0-12.394,5.549-12.394,12.394
				V1024.185z"/>
			<path style="opacity:0.3;fill:#FFFFFF;" d="M858.852,1117.214v-82.32c0-10.262,8.349-18.611,18.611-18.611h170.36
				c10.262,0,18.611,8.349,18.611,18.611v82.32c0,10.262-8.349,18.61-18.611,18.61h-170.36
				C867.201,1135.824,858.852,1127.475,858.852,1117.214z M877.463,1025.386c-5.243,0-9.507,4.265-9.507,9.507v82.32
				c0,5.242,4.265,9.507,9.507,9.507h170.36c5.243,0,9.507-4.265,9.507-9.507v-82.32c0-5.242-4.265-9.507-9.507-9.507H877.463z"/>
			<path style="opacity:0.3;fill:#FFFFFF;" d="M78.117,1022.924v-94.266c0-11.751,9.56-21.311,21.311-21.311h195.083
				c11.751,0,21.311,9.56,21.311,21.311v94.266c0,11.751-9.56,21.311-21.311,21.311H99.428
				C87.677,1044.235,78.117,1034.675,78.117,1022.924z M99.428,917.771c-6.003,0-10.887,4.884-10.887,10.887v94.266
				c0,6.003,4.884,10.887,10.887,10.887h195.083c6.003,0,10.887-4.884,10.887-10.887v-94.266c0-6.003-4.884-10.887-10.887-10.887
				H99.428z"/>
			<path style="opacity:0.3;fill:#FFFFFF;" d="M1123.24,1117.711v-56.325c0-7.021,5.712-12.734,12.734-12.734h116.563
				c7.021,0,12.734,5.712,12.734,12.734v56.325c0,7.021-5.712,12.734-12.734,12.734h-116.563
				C1128.952,1130.444,1123.24,1124.732,1123.24,1117.711z M1135.973,1054.881c-3.587,0-6.505,2.918-6.505,6.505v56.325
				c0,3.587,2.918,6.505,6.505,6.505h116.563c3.587,0,6.505-2.918,6.505-6.505v-56.325c0-3.587-2.918-6.505-6.505-6.505H1135.973z"
				/>
			<path style="opacity:0.3;fill:#FFFFFF;" d="M-6.935,932.731v-56.325c0-7.021,5.712-12.734,12.734-12.734h116.563
				c7.021,0,12.734,5.712,12.734,12.734v56.325c0,7.021-5.712,12.734-12.734,12.734H5.799
				C-1.222,945.464-6.935,939.752-6.935,932.731z M5.799,869.901c-3.587,0-6.505,2.918-6.505,6.505v56.325
				c0,3.587,2.918,6.505,6.505,6.505h116.563c3.587,0,6.505-2.918,6.505-6.505v-56.325c0-3.587-2.918-6.505-6.505-6.505H5.799z"/>
			<path style="opacity:0.3;fill:#FFFFFF;" d="M3.992,1177.559v-76.529c0-9.54,7.761-17.301,17.301-17.301h158.375
				c9.54,0,17.301,7.761,17.301,17.301v76.529c0,9.54-7.761,17.301-17.301,17.301H21.293
				C11.753,1194.86,3.992,1187.099,3.992,1177.559z M21.293,1092.192c-4.874,0-8.839,3.965-8.839,8.838v76.529
				c0,4.873,3.965,8.838,8.839,8.838h158.375c4.874,0,8.839-3.965,8.839-8.838v-76.529c0-4.873-3.965-8.838-8.839-8.838H21.293z"/>
			<path style="opacity:0.3;fill:#FFFFFF;" d="M835.07,962.516v-56.423c0-7.034,5.722-12.756,12.756-12.756h116.768
				c7.034,0,12.756,5.722,12.756,12.756v56.423c0,7.034-5.722,12.756-12.756,12.756H847.826
				C840.793,975.272,835.07,969.549,835.07,962.516z M847.826,899.576c-3.593,0-6.516,2.923-6.516,6.516v56.423
				c0,3.593,2.923,6.517,6.516,6.517h116.768c3.593,0,6.516-2.924,6.516-6.517v-56.423c0-3.593-2.923-6.516-6.516-6.516H847.826z"/>
			<path style="opacity:0.3;fill:#FFFFFF;" d="M371.615,1120.506v-62.651c0-7.81,6.354-14.164,14.164-14.164h129.656
				c7.81,0,14.164,6.354,14.164,14.164v62.651c0,7.81-6.354,14.164-14.164,14.164H385.779
				C377.969,1134.671,371.615,1128.317,371.615,1120.506z M385.779,1050.62c-3.99,0-7.236,3.246-7.236,7.236v62.651
				c0,3.99,3.246,7.236,7.236,7.236h129.656c3.99,0,7.236-3.246,7.236-7.236v-62.651c0-3.99-3.246-7.236-7.236-7.236H385.779z"/>
			<path style="opacity:0.3;fill:#FFFFFF;" d="M633.991,1029.963v-62.651c0-7.81,6.354-14.164,14.164-14.164h129.656
				c7.81,0,14.164,6.354,14.164,14.164v62.651c0,7.81-6.354,14.164-14.164,14.164H648.155
				C640.345,1044.127,633.991,1037.773,633.991,1029.963z M648.155,960.076c-3.99,0-7.236,3.246-7.236,7.236v62.651
				c0,3.99,3.246,7.236,7.236,7.236h129.656c3.99,0,7.236-3.246,7.236-7.236v-62.651c0-3.99-3.246-7.236-7.236-7.236H648.155z"/>
			<path style="opacity:0.3;fill:#FFFFFF;" d="M1053.686,1225.94v-48.712c0-6.072,4.94-11.013,11.013-11.013h100.809
				c6.072,0,11.013,4.94,11.013,11.013v48.712c0,6.072-4.94,11.013-11.013,11.013h-100.809
				C1058.627,1236.953,1053.686,1232.013,1053.686,1225.94z M1064.699,1171.603c-3.102,0-5.626,2.524-5.626,5.626v48.712
				c0,3.102,2.524,5.626,5.626,5.626h100.809c3.102,0,5.626-2.524,5.626-5.626v-48.712c0-3.102-2.524-5.626-5.626-5.626H1064.699z"
				/>
			<path style="opacity:0.3;fill:#FFFFFF;" d="M304.809,1017.298v-48.712c0-6.072,4.94-11.013,11.013-11.013h100.809
				c6.072,0,11.013,4.94,11.013,11.013v48.712c0,6.072-4.94,11.013-11.013,11.013H315.822
				C309.75,1028.311,304.809,1023.37,304.809,1017.298z M315.822,962.96c-3.102,0-5.626,2.524-5.626,5.626v48.712
				c0,3.102,2.524,5.626,5.626,5.626h100.809c3.102,0,5.626-2.524,5.626-5.626v-48.712c0-3.102-2.524-5.626-5.626-5.626H315.822z"/>
			<path style="opacity:0.3;fill:#FFFFFF;" d="M730.558,1234.126v-48.712c0-6.072,4.94-11.013,11.013-11.013H842.38
				c6.073,0,11.013,4.94,11.013,11.013v48.712c0,6.072-4.94,11.013-11.013,11.013H741.571
				C735.498,1245.138,730.558,1240.198,730.558,1234.126z M741.571,1179.788c-3.102,0-5.626,2.524-5.626,5.626v48.712
				c0,3.102,2.524,5.626,5.626,5.626H842.38c3.102,0,5.626-2.524,5.626-5.626v-48.712c0-3.102-2.524-5.626-5.626-5.626H741.571z"/>
			<path style="opacity:0.3;fill:#FFFFFF;" d="M589.412,1237.505v-34.672c0-4.322,3.516-7.839,7.838-7.839h71.753
				c4.322,0,7.839,3.516,7.839,7.839v34.672c0,4.322-3.516,7.839-7.839,7.839H597.25
				C592.928,1245.343,589.412,1241.827,589.412,1237.505z M597.25,1198.829c-2.208,0-4.004,1.796-4.004,4.004v34.672
				c0,2.208,1.796,4.004,4.004,4.004h71.753c2.208,0,4.004-1.796,4.004-4.004v-34.672c0-2.208-1.796-4.004-4.004-4.004H597.25z"/>
			<path style="opacity:0.3;fill:#FFFFFF;" d="M-33.071,1006.945v-62.651c0-7.81,6.354-14.164,14.164-14.164h129.656
				c7.81,0,14.164,6.354,14.164,14.164v62.651c0,7.81-6.354,14.164-14.164,14.164H-18.907
				C-26.717,1021.109-33.071,1014.755-33.071,1006.945z M-18.907,937.058c-3.99,0-7.236,3.246-7.236,7.236v62.651
				c0,3.99,3.246,7.236,7.236,7.236h129.656c3.99,0,7.236-3.246,7.236-7.236v-62.651c0-3.99-3.246-7.236-7.236-7.236H-18.907z"/>
			<path style="opacity:0.3;fill:#FFFFFF;" d="M200.314,1219.784v-36.788c0-4.586,3.731-8.317,8.317-8.317h76.132
				c4.586,0,8.317,3.731,8.317,8.317v36.788c0,4.586-3.731,8.317-8.317,8.317h-76.132
				C204.045,1228.101,200.314,1224.37,200.314,1219.784z M208.631,1178.748c-2.343,0-4.249,1.906-4.249,4.249v36.788
				c0,2.343,1.906,4.249,4.249,4.249h76.132c2.343,0,4.249-1.906,4.249-4.249v-36.788c0-2.343-1.906-4.249-4.249-4.249H208.631z"/>
			<path style="opacity:0.3;fill:#FFFFFF;" d="M501.489,1166.006v-62.569c0-7.8,6.346-14.146,14.145-14.146h129.486
				c7.8,0,14.145,6.346,14.145,14.146v62.569c0,7.8-6.346,14.146-14.145,14.146H515.634
				C507.835,1180.152,501.489,1173.806,501.489,1166.006z M515.634,1096.211c-3.985,0-7.226,3.242-7.226,7.226v62.569
				c0,3.984,3.242,7.226,7.226,7.226h129.486c3.985,0,7.226-3.242,7.226-7.226v-62.569c0-3.984-3.241-7.226-7.226-7.226H515.634z"/>
			<path style="opacity:0.3;fill:#FFFFFF;" d="M228.357,1184.067v-53.816c0-6.709,5.458-12.167,12.167-12.167h111.372
				c6.709,0,12.167,5.458,12.167,12.167v53.816c0,6.709-5.458,12.167-12.167,12.167H240.523
				C233.815,1196.234,228.357,1190.776,228.357,1184.067z M240.523,1124.036c-3.427,0-6.215,2.788-6.215,6.215v53.816
				c0,3.427,2.788,6.215,6.215,6.215h111.372c3.427,0,6.215-2.788,6.215-6.215v-53.816c0-3.427-2.788-6.215-6.215-6.215H240.523z"/>
			<path style="opacity:0.3;fill:#FFFFFF;" d="M1097.529,981.484v-62.569c0-7.8,6.346-14.145,14.146-14.145h129.486
				c7.8,0,14.146,6.346,14.146,14.145v62.569c0,7.8-6.346,14.145-14.146,14.145h-129.486
				C1103.874,995.629,1097.529,989.284,1097.529,981.484z M1111.674,911.688c-3.985,0-7.226,3.242-7.226,7.226v62.569
				c0,3.984,3.242,7.226,7.226,7.226h129.486c3.985,0,7.226-3.242,7.226-7.226v-62.569c0-3.984-3.242-7.226-7.226-7.226H1111.674z"
				/>
			<path style="opacity:0.3;fill:#FFFFFF;" d="M394.636,965.589v-62.569c0-7.8,6.346-14.146,14.146-14.146h129.486
				c7.8,0,14.146,6.346,14.146,14.146v62.569c0,7.8-6.346,14.145-14.146,14.145H408.781
				C400.981,979.734,394.636,973.388,394.636,965.589z M408.781,895.793c-3.985,0-7.226,3.242-7.226,7.226v62.569
				c0,3.984,3.242,7.226,7.226,7.226h129.486c3.985,0,7.226-3.242,7.226-7.226v-62.569c0-3.984-3.242-7.226-7.226-7.226H408.781z"/>
			<path style="opacity:0.3;fill:#FFFFFF;" d="M782.812,1211.424c0,7.648,6.2,13.848,13.848,13.848h167.802
				c7.648,0,13.848-6.2,13.848-13.848v-81.084c0-7.648-6.2-13.848-13.848-13.848H796.66c-7.648,0-13.848,6.2-13.848,13.848V1211.424
				z"/>
			<path style="opacity:0.2;fill:#FFFFFF;" d="M536.242,948.912c0,7.082,5.741,12.824,12.824,12.824h155.396
				c7.082,0,12.824-5.741,12.824-12.824v-75.089c0-7.082-5.742-12.824-12.824-12.824H549.066c-7.083,0-12.824,5.741-12.824,12.824
				V948.912z"/>
			<path style="opacity:0.2;fill:#FFFFFF;" d="M1127.557,984.046c0,7.648,6.2,13.848,13.848,13.848h167.802
				c7.648,0,13.848-6.2,13.848-13.848v-81.084c0-7.648-6.2-13.848-13.848-13.848h-167.802c-7.648,0-13.848,6.2-13.848,13.848
				V984.046z"/>
			<path style="opacity:0.3;fill:#FFFFFF;" d="M473.524,1060.399c0,6.751,5.473,12.224,12.224,12.224h148.132
				c6.751,0,12.224-5.473,12.224-12.224v-71.579c0-6.751-5.473-12.224-12.224-12.224H485.749c-6.751,0-12.224,5.473-12.224,12.224
				V1060.399z"/>
			<path style="opacity:0.2;fill:#FFFFFF;" d="M188.073,1082.248c0,6.039,4.895,10.934,10.934,10.934h132.494
				c6.039,0,10.934-4.895,10.934-10.934v-64.023c0-6.039-4.895-10.934-10.934-10.934H199.007c-6.039,0-10.934,4.895-10.934,10.934
				V1082.248z"/>
			<path style="opacity:0.3;fill:#FFFFFF;" d="M236.925,1223.592c0,6.173,5.004,11.177,11.177,11.177h135.441
				c6.173,0,11.177-5.004,11.177-11.177v-65.446c0-6.173-5.004-11.177-11.177-11.177H248.102c-6.173,0-11.177,5.004-11.177,11.177
				V1223.592z"/>
			<path style="opacity:0.2;fill:#FFFFFF;" d="M292.718,915.822c0,6.173,5.004,11.177,11.177,11.177h135.441
				c6.173,0,11.177-5.004,11.177-11.177v-65.446c0-6.173-5.004-11.177-11.177-11.177H303.895c-6.173,0-11.177,5.004-11.177,11.177
				V915.822z"/>
			<path style="opacity:0.2;fill:#FFFFFF;" d="M764.892,937.492c0,6.173,5.004,11.177,11.177,11.177H911.51
				c6.173,0,11.177-5.004,11.177-11.177v-65.446c0-6.173-5.004-11.177-11.177-11.177H776.07c-6.173,0-11.177,5.004-11.177,11.177
				V937.492z"/>
			<path style="opacity:0.3;fill:#FFFFFF;" d="M532.992,1213.299c0,6.416,5.201,11.618,11.618,11.618h140.78
				c6.416,0,11.618-5.201,11.618-11.618v-68.026c0-6.416-5.201-11.618-11.618-11.618H544.61c-6.416,0-11.618,5.201-11.618,11.618
				V1213.299z"/>
			<path style="opacity:0.2;fill:#FFFFFF;" d="M761.782,1078.281c0,6.416,5.201,11.618,11.618,11.618h140.78
				c6.416,0,11.618-5.201,11.618-11.618v-68.026c0-6.416-5.202-11.618-11.618-11.618H773.4c-6.416,0-11.618,5.201-11.618,11.618
				V1078.281z"/>
			<path style="opacity:0.2;fill:#FFFFFF;" d="M947.587,984.212c0,6.416,5.202,11.618,11.618,11.618h140.78
				c6.416,0,11.618-5.202,11.618-11.618v-68.026c0-6.416-5.201-11.618-11.618-11.618h-140.78c-6.416,0-11.618,5.201-11.618,11.618
				V984.212z"/>
			<path style="opacity:0.3;fill:#FFFFFF;" d="M752.094,1124.921c0,4.413,3.577,7.99,7.99,7.99h96.82c4.413,0,7.99-3.577,7.99-7.99
				v-46.784c0-4.413-3.577-7.99-7.99-7.99h-96.82c-4.413,0-7.99,3.577-7.99,7.99V1124.921z"/>
			<path style="opacity:0.2;fill:#FFFFFF;" d="M48.513,927.749c0,4.413,3.577,7.99,7.99,7.99h96.82c4.413,0,7.99-3.577,7.99-7.99
				v-46.784c0-4.413-3.577-7.99-7.99-7.99h-96.82c-4.413,0-7.99,3.577-7.99,7.99V927.749z"/>
			<path style="opacity:0.3;fill:#FFFFFF;" d="M146.511,1201.78c0,4.413,3.577,7.99,7.99,7.99h96.82c4.413,0,7.99-3.577,7.99-7.99
				v-46.784c0-4.413-3.577-7.99-7.99-7.99h-96.82c-4.413,0-7.99,3.577-7.99,7.99V1201.78z"/>
			<path style="opacity:0.2;fill:#FFFFFF;" d="M653.657,985.131c0,4.878,3.954,8.832,8.832,8.832H769.51
				c4.878,0,8.832-3.954,8.832-8.832v-51.714c0-4.878-3.954-8.832-8.832-8.832H662.488c-4.878,0-8.832,3.954-8.832,8.832V985.131z"
				/>
			<path style="opacity:0.2;fill:#FFFFFF;" d="M449.785,1238.525c0,4.045,3.279,7.325,7.325,7.325h88.758
				c4.045,0,7.325-3.279,7.325-7.325v-42.889c0-4.045-3.279-7.325-7.325-7.325H457.11c-4.045,0-7.325,3.279-7.325,7.325V1238.525z"
				/>
			<path style="opacity:0.2;fill:#FFFFFF;" d="M520.698,1134.405c0,2.802,2.272,5.074,5.074,5.074h61.485
				c2.802,0,5.074-2.272,5.074-5.074v-29.71c0-2.802-2.272-5.074-5.074-5.074h-61.485c-2.802,0-5.074,2.272-5.074,5.074V1134.405z"
				/>
			<path style="opacity:0.3;fill:#FFFFFF;" d="M600.424,1147.941c0,5.091,4.127,9.218,9.218,9.218H721.34
				c5.091,0,9.218-4.127,9.218-9.218v-53.974c0-5.091-4.127-9.218-9.218-9.218H609.642c-5.091,0-9.218,4.127-9.218,9.218V1147.941z"
				/>
			<path style="opacity:0.3;fill:#FFFFFF;" d="M707.092,1189.116c0,3.44,2.788,6.228,6.228,6.228h75.469
				c3.44,0,6.228-2.788,6.228-6.228v-36.467c0-3.44-2.788-6.228-6.228-6.228H713.32c-3.44,0-6.228,2.788-6.228,6.228V1189.116z"/>
			<path style="opacity:0.2;fill:#FFFFFF;" d="M140.569,1033.466c0,4.878,3.954,8.832,8.832,8.832h107.021
				c4.878,0,8.832-3.954,8.832-8.832v-51.714c0-4.878-3.954-8.832-8.832-8.832H149.401c-4.878,0-8.832,3.954-8.832,8.832V1033.466z"
				/>
			<path style="opacity:0.3;fill:#FFFFFF;" d="M476.812,962.453c0,4.413,3.577,7.99,7.99,7.99h96.82c4.413,0,7.99-3.577,7.99-7.99
				v-46.784c0-4.413-3.577-7.99-7.99-7.99h-96.82c-4.413,0-7.99,3.577-7.99,7.99V962.453z"/>
			<path style="opacity:0.3;fill:#FFFFFF;" d="M420.412,1158.114c0,4.413,3.577,7.99,7.99,7.99h96.82c4.413,0,7.99-3.577,7.99-7.99
				v-46.784c0-4.413-3.577-7.99-7.99-7.99h-96.82c-4.413,0-7.99,3.577-7.99,7.99V1158.114z"/>
			<path style="opacity:0.3;fill:#FFFFFF;" d="M113,1142.326c0,5.491,4.452,9.943,9.943,9.943h120.484
				c5.491,0,9.943-4.452,9.943-9.943v-58.219c0-5.491-4.452-9.943-9.943-9.943H122.943c-5.491,0-9.943,4.452-9.943,9.943V1142.326z"
				/>
			<path style="opacity:0.3;fill:#FFFFFF;" d="M253.498,1044.555c0,4.753,3.853,8.606,8.606,8.606h104.284
				c4.753,0,8.606-3.853,8.606-8.606v-50.391c0-4.753-3.853-8.606-8.606-8.606H262.104c-4.753,0-8.606,3.853-8.606,8.606V1044.555z"
				/>
			<path style="opacity:0.3;fill:#FFFFFF;" d="M598.518,1081.54c0,4.753,3.853,8.606,8.606,8.606h104.284
				c4.753,0,8.606-3.853,8.606-8.606v-50.391c0-4.753-3.853-8.606-8.606-8.606H607.124c-4.753,0-8.606,3.853-8.606,8.606V1081.54z"
				/>
			<path style="opacity:0.3;fill:#FFFFFF;" d="M380.328,1246.19c0,5.491,4.452,9.943,9.943,9.943h120.484
				c5.491,0,9.943-4.452,9.943-9.943v-58.219c0-5.491-4.452-9.943-9.943-9.943H390.271c-5.491,0-9.943,4.452-9.943,9.943V1246.19z"
				/>
			<path style="opacity:0.3;fill:#FFFFFF;" d="M-48.845,1191.976c0,4.813,3.901,8.714,8.714,8.714H65.463
				c4.813,0,8.714-3.901,8.714-8.714v-51.024c0-4.813-3.901-8.714-8.714-8.714H-40.131c-4.813,0-8.714,3.901-8.714,8.714V1191.976z"
				/>
			<path style="opacity:0.3;fill:#FFFFFF;" d="M932.178,1237.035c0,4.818,3.906,8.724,8.724,8.724h105.715
				c4.818,0,8.724-3.906,8.724-8.724v-51.083c0-4.818-3.906-8.724-8.724-8.724H940.902c-4.818,0-8.724,3.906-8.724,8.724V1237.035z"
				/>
			<path style="opacity:0.3;fill:#FFFFFF;" d="M517.774,1160.222c0,3.289,2.667,5.956,5.956,5.956h72.169
				c3.289,0,5.956-2.667,5.956-5.956v-34.873c0-3.289-2.666-5.956-5.956-5.956H523.73c-3.289,0-5.956,2.667-5.956,5.956V1160.222z"
				/>
			<path style="opacity:0.3;fill:#FFFFFF;" d="M801.75,1180.493c0,5.169,4.19,9.359,9.359,9.359h113.413
				c5.169,0,9.359-4.19,9.359-9.359v-54.802c0-5.169-4.19-9.359-9.359-9.359H811.109c-5.169,0-9.359,4.19-9.359,9.359V1180.493z"/>
			<path style="opacity:0.3;fill:#FFFFFF;" d="M719.742,1150.348c0,3.289,2.667,5.956,5.956,5.956h72.169
				c3.289,0,5.956-2.667,5.956-5.956v-34.873c0-3.289-2.666-5.956-5.956-5.956h-72.169c-3.289,0-5.956,2.667-5.956,5.956V1150.348z"
				/>
			<path style="opacity:0.3;fill:#FFFFFF;" d="M670.943,1231.899c0,4.735,3.838,8.573,8.573,8.573h103.886
				c4.735,0,8.573-3.838,8.573-8.573v-50.199c0-4.735-3.838-8.573-8.573-8.573H679.516c-4.735,0-8.573,3.838-8.573,8.573V1231.899z"
				/>
			<path style="opacity:0.3;fill:#FFFFFF;" d="M133,1226.544c0,3.289,2.667,5.956,5.956,5.956h72.169
				c3.289,0,5.956-2.666,5.956-5.956v-34.873c0-3.289-2.666-5.956-5.956-5.956h-72.169c-3.289,0-5.956,2.667-5.956,5.956V1226.544z"
				/>
			<path style="opacity:0.3;fill:#FFFFFF;" d="M279.589,1079.247c0,3.289,2.667,5.956,5.956,5.956h72.169
				c3.289,0,5.956-2.667,5.956-5.956v-34.873c0-3.289-2.666-5.956-5.956-5.956h-72.169c-3.289,0-5.956,2.667-5.956,5.956V1079.247z"
				/>
			<path style="opacity:0.3;fill:#FFFFFF;" d="M42.245,1221.849c0,4.556,3.694,8.25,8.25,8.25h99.97c4.556,0,8.25-3.694,8.25-8.25
				v-48.307c0-4.556-3.694-8.25-8.25-8.25h-99.97c-4.556,0-8.25,3.694-8.25,8.25V1221.849z"/>
			<path style="opacity:0.3;fill:#FFFFFF;" d="M44.081,1011.292c0,4.413,3.577,7.99,7.99,7.99h96.82c4.413,0,7.99-3.577,7.99-7.99
				v-46.784c0-4.413-3.577-7.99-7.99-7.99h-96.82c-4.413,0-7.99,3.577-7.99,7.99V1011.292z"/>
			<path style="opacity:0.3;fill:#FFFFFF;" d="M860.974,1121.366c0,5.238,4.247,9.485,9.485,9.485h114.934
				c5.238,0,9.485-4.246,9.485-9.485v-55.537c0-5.238-4.247-9.485-9.485-9.485H870.459c-5.238,0-9.485,4.246-9.485,9.485V1121.366z"
				/>
			<path style="opacity:0.3;fill:#FFFFFF;" d="M897.315,1052.978c0,4.878,3.954,8.833,8.833,8.833h107.031
				c4.878,0,8.833-3.954,8.833-8.833v-51.718c0-4.878-3.954-8.833-8.833-8.833H906.148c-4.878,0-8.833,3.955-8.833,8.833V1052.978z"
				/>
			<path style="opacity:0.3;fill:#FFFFFF;" d="M238.606,1153.173c0,4.675,3.79,8.465,8.465,8.465h102.575
				c4.675,0,8.465-3.79,8.465-8.465v-49.565c0-4.675-3.79-8.465-8.465-8.465H247.071c-4.675,0-8.465,3.79-8.465,8.465V1153.173z"/>
			<path style="opacity:0.3;fill:#FFFFFF;" d="M1174.315,1082.83c0,4.911,3.982,8.893,8.893,8.893h107.764
				c4.911,0,8.893-3.982,8.893-8.893v-52.073c0-4.912-3.982-8.893-8.893-8.893h-107.764c-4.912,0-8.893,3.982-8.893,8.893V1082.83z"
				/>
			<path style="opacity:0.2;fill:#FFFFFF;" d="M48.383,1219.801c0,5.834,4.729,10.563,10.563,10.563H186.94
				c5.834,0,10.563-4.729,10.563-10.563v-61.848c0-5.834-4.729-10.563-10.563-10.563H58.946c-5.834,0-10.563,4.729-10.563,10.563
				V1219.801z"/>
			<path style="opacity:0.3;fill:#FFFFFF;" d="M178.81,955.509c0,5.834,4.729,10.563,10.563,10.563h127.994
				c5.834,0,10.563-4.729,10.563-10.563v-61.848c0-5.834-4.729-10.563-10.563-10.563H189.372c-5.834,0-10.563,4.729-10.563,10.563
				V955.509z"/>
			<path style="opacity:0.2;fill:#FFFFFF;" d="M906.21,1200.801c0,5.834,4.729,10.563,10.563,10.563h127.994
				c5.834,0,10.563-4.729,10.563-10.563v-61.848c0-5.834-4.729-10.563-10.563-10.563H916.773c-5.834,0-10.563,4.729-10.563,10.563
				V1200.801z"/>
			<path style="opacity:0.2;fill:#FFFFFF;" d="M1021.795,1063.995c0,4.57,3.705,8.274,8.274,8.274h100.267
				c4.57,0,8.275-3.705,8.275-8.274v-48.45c0-4.57-3.705-8.274-8.275-8.274H1030.07c-4.57,0-8.274,3.705-8.274,8.274V1063.995z"/>
			<path style="opacity:0.3;fill:#FFFFFF;" d="M673.118,1185.461c0,4.494,3.643,8.137,8.137,8.137h98.605
				c4.494,0,8.137-3.643,8.137-8.137v-47.647c0-4.494-3.643-8.137-8.137-8.137h-98.605c-4.494,0-8.137,3.643-8.137,8.137V1185.461z"
				/>
			<path style="opacity:0.3;fill:#FFFFFF;" d="M691.081,1028.923c0,4.494,3.643,8.137,8.137,8.137h98.605
				c4.494,0,8.137-3.643,8.137-8.137v-47.647c0-4.494-3.643-8.137-8.137-8.137h-98.605c-4.494,0-8.137,3.643-8.137,8.137V1028.923z"
				/>
			<path style="opacity:0.3;fill:#FFFFFF;" d="M533.212,1096.447c0,4.494,3.643,8.137,8.137,8.137h98.605
				c4.494,0,8.137-3.643,8.137-8.137v-47.647c0-4.494-3.643-8.137-8.137-8.137h-98.605c-4.494,0-8.137,3.643-8.137,8.137V1096.447z"
				/>
			<path style="opacity:0.3;fill:#FFFFFF;" d="M683.552,1122.197c0,4.494,3.643,8.137,8.137,8.137h98.605
				c4.494,0,8.137-3.643,8.137-8.137v-47.647c0-4.494-3.643-8.137-8.137-8.137h-98.605c-4.494,0-8.137,3.643-8.137,8.137V1122.197z"
				/>
			<path style="opacity:0.3;fill:#FFFFFF;" d="M1008.994,1152.214c0,4.494,3.643,8.137,8.137,8.137h98.605
				c4.494,0,8.137-3.643,8.137-8.137v-47.647c0-4.494-3.643-8.137-8.137-8.137h-98.605c-4.494,0-8.137,3.643-8.137,8.137V1152.214z"
				/>
			<path style="opacity:0.2;fill:#FFFFFF;" d="M475.772,896.22c0,4.494,3.643,8.137,8.137,8.137h98.605
				c4.494,0,8.137-3.643,8.137-8.137v-47.647c0-4.494-3.643-8.137-8.137-8.137h-98.605c-4.494,0-8.137,3.643-8.137,8.137V896.22z"/>
			<path style="opacity:0.3;fill:#FFFFFF;" d="M831.651,1006.715c0,5.833,4.729,10.563,10.563,10.563h127.994
				c5.834,0,10.563-4.729,10.563-10.563v-61.848c0-5.834-4.729-10.563-10.563-10.563H842.213c-5.834,0-10.563,4.729-10.563,10.563
				V1006.715z"/>
			<path style="opacity:0.3;fill:#FFFFFF;" d="M1015.538,1233.214c0,3.982,3.228,7.21,7.21,7.21h87.371
				c3.982,0,7.21-3.228,7.21-7.21v-42.219c0-3.982-3.228-7.21-7.21-7.21h-87.371c-3.982,0-7.21,3.228-7.21,7.21V1233.214z"/>
			<path style="opacity:0.3;fill:#FFFFFF;" d="M-107.631,999.888c0,5.834,4.729,10.563,10.563,10.563H30.926
				c5.834,0,10.563-4.729,10.563-10.563v-61.848c0-5.834-4.729-10.563-10.563-10.563H-97.068c-5.834,0-10.563,4.729-10.563,10.563
				V999.888z"/>
		</g>
		<g style="clip-path:url(#SVGID_00000026851102071681556450000002930168503327064713_);">
			<path style="opacity:0.3;fill:#FFFFFF;" d="M214.913,50.06c0-10.373-8.409-18.783-18.783-18.783h-227.6
				c-10.373,0-18.783,8.409-18.783,18.783v109.979c0,10.373,8.409,18.783,18.783,18.783h227.6c10.373,0,18.783-8.409,18.783-18.783
				V50.06z"/>
			<path style="opacity:0.3;fill:#FFFFFF;" d="M891.033,45.38c0-8.817-7.148-15.965-15.965-15.965H681.615
				c-8.817,0-15.965,7.148-15.965,15.965v93.479c0,8.817,7.148,15.965,15.965,15.965h193.453c8.817,0,15.965-7.148,15.965-15.965
				V45.38z"/>
			<path style="opacity:0.2;fill:#FFFFFF;" d="M656.631,93.035c0-7.422-6.017-13.439-13.439-13.439H480.343
				c-7.422,0-13.439,6.017-13.439,13.439v78.69c0,7.422,6.017,13.439,13.439,13.439h162.849c7.422,0,13.439-6.017,13.439-13.439
				V93.035z"/>
			<path style="opacity:0.2;fill:#FFFFFF;" d="M919.215,150.625c0-8.661-7.021-15.683-15.682-15.683H713.498
				c-8.661,0-15.682,7.021-15.682,15.683v91.826c0,8.661,7.021,15.682,15.682,15.682h190.034c8.661,0,15.682-7.021,15.682-15.682
				V150.625z"/>
			<path style="opacity:0.3;fill:#FFFFFF;" d="M1264.269,51.71c0-9.13-7.402-16.532-16.532-16.532h-200.326
				c-9.13,0-16.532,7.402-16.532,16.532v96.8c0,9.13,7.401,16.532,16.532,16.532h200.326c9.13,0,16.532-7.402,16.532-16.532V51.71z"
				/>
			<path style="opacity:0.2;fill:#FFFFFF;" d="M106.813-12.536c0-6.129-4.968-11.097-11.097-11.097H-38.749
				c-6.129,0-11.097,4.968-11.097,11.097v64.975c0,6.129,4.968,11.097,11.097,11.097H95.716c6.129,0,11.097-4.968,11.097-11.097
				V-12.536z"/>
			<path style="opacity:0.2;fill:#FFFFFF;" d="M221.414,276.238c0-6.845-5.549-12.394-12.394-12.394H58.836
				c-6.845,0-12.394,5.549-12.394,12.394v72.571c0,6.845,5.549,12.394,12.394,12.394h150.184c6.845,0,12.394-5.549,12.394-12.394
				V276.238z"/>
			<path style="opacity:0.3;fill:#FFFFFF;" d="M164.299,177.454c0-6.845-5.549-12.394-12.394-12.394H1.721
				c-6.845,0-12.394,5.549-12.394,12.394v72.571c0,6.845,5.549,12.394,12.394,12.394h150.184c6.845,0,12.394-5.549,12.394-12.394
				V177.454z"/>
			<path style="opacity:0.3;fill:#FFFFFF;" d="M356.572,84.425v82.32c0,10.262-8.349,18.611-18.611,18.611h-170.36
				c-10.262,0-18.611-8.349-18.611-18.611v-82.32c0-10.262,8.349-18.611,18.611-18.611h170.36
				C348.223,65.815,356.572,74.163,356.572,84.425z M337.961,176.252c5.243,0,9.507-4.265,9.507-9.507v-82.32
				c0-5.242-4.265-9.507-9.507-9.507h-170.36c-5.243,0-9.507,4.265-9.507,9.507v82.32c0,5.242,4.265,9.507,9.507,9.507H337.961z"/>
			<path style="opacity:0.3;fill:#FFFFFF;" d="M1137.308,178.715v94.266c0,11.751-9.56,21.311-21.311,21.311H920.913
				c-11.751,0-21.311-9.56-21.311-21.311v-94.266c0-11.751,9.56-21.311,21.311-21.311h195.083
				C1127.747,157.404,1137.308,166.964,1137.308,178.715z M1115.996,283.868c6.003,0,10.887-4.884,10.887-10.887v-94.266
				c0-6.003-4.884-10.887-10.887-10.887H920.913c-6.003,0-10.887,4.884-10.887,10.887v94.266c0,6.003,4.884,10.887,10.887,10.887
				H1115.996z"/>
			<path style="opacity:0.3;fill:#FFFFFF;" d="M92.184,83.928v56.325c0,7.021-5.712,12.734-12.734,12.734H-37.112
				c-7.021,0-12.734-5.712-12.734-12.734V83.928c0-7.021,5.712-12.734,12.734-12.734H79.451
				C86.472,71.194,92.184,76.907,92.184,83.928z M79.451,146.758c3.587,0,6.505-2.918,6.505-6.505V83.928
				c0-3.587-2.918-6.505-6.505-6.505H-37.112c-3.587,0-6.505,2.918-6.505,6.505v56.325c0,3.587,2.918,6.505,6.505,6.505H79.451z"/>
			<path style="opacity:0.3;fill:#FFFFFF;" d="M1222.359,268.908v56.325c0,7.021-5.712,12.734-12.734,12.734h-116.563
				c-7.021,0-12.734-5.712-12.734-12.734v-56.325c0-7.021,5.712-12.734,12.734-12.734h116.563
				C1216.646,256.174,1222.359,261.887,1222.359,268.908z M1209.625,331.738c3.587,0,6.505-2.918,6.505-6.505v-56.325
				c0-3.587-2.918-6.505-6.505-6.505h-116.563c-3.587,0-6.505,2.918-6.505,6.505v56.325c0,3.587,2.918,6.505,6.505,6.505H1209.625z"
				/>
			<path style="opacity:0.3;fill:#FFFFFF;" d="M1211.432,38.55v76.529c0,9.54-7.761,17.301-17.301,17.301h-158.375
				c-9.54,0-17.301-7.761-17.301-17.301V38.55c0-9.54,7.761-17.301,17.301-17.301h158.375
				C1203.671,21.249,1211.432,29.01,1211.432,38.55z M1194.131,123.917c4.874,0,8.839-3.965,8.839-8.839V38.55
				c0-4.873-3.965-8.838-8.839-8.838h-158.375c-4.874,0-8.838,3.965-8.838,8.838v76.529c0,4.873,3.965,8.839,8.838,8.839H1194.131z"
				/>
			<path style="opacity:0.3;fill:#FFFFFF;" d="M380.354,239.123v56.423c0,7.034-5.722,12.756-12.756,12.756H250.83
				c-7.034,0-12.756-5.722-12.756-12.756v-56.423c0-7.034,5.722-12.756,12.756-12.756h116.768
				C374.632,226.367,380.354,232.089,380.354,239.123z M367.598,302.063c3.593,0,6.516-2.923,6.516-6.517v-56.423
				c0-3.593-2.923-6.516-6.516-6.516H250.83c-3.593,0-6.516,2.923-6.516,6.516v56.423c0,3.593,2.923,6.517,6.516,6.517H367.598z"/>
			<path style="opacity:0.3;fill:#FFFFFF;" d="M843.809,81.132v62.651c0,7.81-6.354,14.164-14.164,14.164H699.989
				c-7.81,0-14.164-6.354-14.164-14.164V81.132c0-7.81,6.354-14.164,14.164-14.164h129.656
				C837.455,66.968,843.809,73.322,843.809,81.132z M829.645,151.019c3.99,0,7.236-3.246,7.236-7.236V81.132
				c0-3.99-3.246-7.236-7.236-7.236H699.989c-3.99,0-7.236,3.246-7.236,7.236v62.651c0,3.99,3.246,7.236,7.236,7.236H829.645z"/>
			<path style="opacity:0.3;fill:#FFFFFF;" d="M581.433,171.676v62.651c0,7.81-6.354,14.164-14.164,14.164H437.613
				c-7.81,0-14.164-6.354-14.164-14.164v-62.651c0-7.81,6.354-14.164,14.164-14.164h129.656
				C575.079,157.512,581.433,163.866,581.433,171.676z M567.269,241.563c3.99,0,7.236-3.246,7.236-7.236v-62.651
				c0-3.99-3.246-7.236-7.236-7.236H437.613c-3.99,0-7.236,3.246-7.236,7.236v62.651c0,3.99,3.246,7.236,7.236,7.236H567.269z"/>
			<path style="opacity:0.3;fill:#FFFFFF;" d="M161.738-24.302V24.41c0,6.072-4.94,11.013-11.013,11.013H49.916
				c-6.072,0-11.013-4.94-11.013-11.013v-48.712c0-6.072,4.94-11.013,11.013-11.013h100.809
				C156.798-35.314,161.738-30.374,161.738-24.302z M150.725,30.036c3.102,0,5.626-2.524,5.626-5.626v-48.712
				c0-3.102-2.524-5.626-5.626-5.626H49.916c-3.102,0-5.626,2.524-5.626,5.626V24.41c0,3.102,2.524,5.626,5.626,5.626H150.725z"/>
			<path style="opacity:0.3;fill:#FFFFFF;" d="M910.615,184.341v48.712c0,6.072-4.94,11.013-11.013,11.013H798.793
				c-6.072,0-11.013-4.94-11.013-11.013v-48.712c0-6.072,4.94-11.013,11.013-11.013h100.809
				C905.674,173.328,910.615,178.268,910.615,184.341z M899.602,238.679c3.102,0,5.626-2.524,5.626-5.626v-48.712
				c0-3.102-2.524-5.626-5.626-5.626H798.793c-3.102,0-5.626,2.524-5.626,5.626v48.712c0,3.102,2.524,5.626,5.626,5.626H899.602z"/>
			<path style="opacity:0.3;fill:#FFFFFF;" d="M484.866-32.487v48.712c0,6.072-4.94,11.013-11.013,11.013H373.044
				c-6.072,0-11.013-4.94-11.013-11.013v-48.712c0-6.072,4.94-11.013,11.013-11.013h100.809
				C479.926-43.5,484.866-38.559,484.866-32.487z M473.853,21.851c3.102,0,5.626-2.524,5.626-5.626v-48.712
				c0-3.102-2.523-5.626-5.626-5.626H373.044c-3.102,0-5.626,2.524-5.626,5.626v48.712c0,3.102,2.524,5.626,5.626,5.626H473.853z"/>
			<path style="opacity:0.3;fill:#FFFFFF;" d="M626.013-35.866v34.672c0,4.322-3.516,7.838-7.839,7.838h-71.753
				c-4.322,0-7.839-3.516-7.839-7.838v-34.672c0-4.322,3.516-7.839,7.839-7.839h71.753
				C622.496-43.705,626.013-40.188,626.013-35.866z M618.174,2.81c2.208,0,4.004-1.796,4.004-4.004v-34.672
				c0-2.208-1.796-4.004-4.004-4.004h-71.753c-2.208,0-4.004,1.796-4.004,4.004v34.672c0,2.208,1.796,4.004,4.004,4.004H618.174z"/>
			<path style="opacity:0.3;fill:#FFFFFF;" d="M1084.099-24.791V9.881c0,4.322-3.516,7.839-7.838,7.839h-71.753
				c-4.322,0-7.839-3.516-7.839-7.839v-34.672c0-4.322,3.516-7.838,7.839-7.838h71.753
				C1080.582-32.63,1084.099-29.113,1084.099-24.791z M1076.26,13.885c2.208,0,4.004-1.796,4.004-4.004v-34.672
				c0-2.208-1.796-4.004-4.004-4.004h-71.753c-2.208,0-4.004,1.796-4.004,4.004V9.881c0,2.208,1.796,4.004,4.004,4.004H1076.26z"/>
			<path style="opacity:0.3;fill:#FFFFFF;" d="M1248.495,194.694v62.651c0,7.81-6.354,14.164-14.164,14.164h-129.656
				c-7.81,0-14.164-6.354-14.164-14.164v-62.651c0-7.81,6.354-14.164,14.164-14.164h129.656
				C1242.141,180.53,1248.495,186.884,1248.495,194.694z M1234.331,264.581c3.99,0,7.236-3.246,7.236-7.236v-62.651
				c0-3.99-3.246-7.236-7.236-7.236h-129.656c-3.99,0-7.236,3.246-7.236,7.236v62.651c0,3.99,3.246,7.236,7.236,7.236H1234.331z"/>
			<path style="opacity:0.3;fill:#FFFFFF;" d="M713.935,35.632v62.569c0,7.8-6.346,14.146-14.146,14.146H570.303
				c-7.8,0-14.146-6.346-14.146-14.146V35.632c0-7.8,6.346-14.145,14.146-14.145H699.79
				C707.59,21.487,713.935,27.833,713.935,35.632z M699.79,105.428c3.985,0,7.226-3.242,7.226-7.226V35.632
				c0-3.984-3.242-7.226-7.226-7.226H570.303c-3.985,0-7.226,3.242-7.226,7.226v62.569c0,3.984,3.241,7.226,7.226,7.226H699.79z"/>
			<path style="opacity:0.3;fill:#FFFFFF;" d="M987.068,17.571v53.816c0,6.709-5.458,12.167-12.167,12.167H863.529
				c-6.709,0-12.167-5.458-12.167-12.167V17.571c0-6.709,5.458-12.167,12.167-12.167h111.372
				C981.61,5.405,987.068,10.863,987.068,17.571z M974.901,77.603c3.427,0,6.215-2.788,6.215-6.215V17.571
				c0-3.427-2.788-6.215-6.215-6.215H863.529c-3.427,0-6.215,2.788-6.215,6.215v53.816c0,3.427,2.788,6.215,6.215,6.215H974.901z"/>
			<path style="opacity:0.3;fill:#FFFFFF;" d="M117.896,220.155v62.569c0,7.8-6.346,14.145-14.146,14.145H-25.736
				c-7.8,0-14.145-6.346-14.145-14.145v-62.569c0-7.8,6.346-14.146,14.145-14.146H103.75
				C111.55,206.009,117.896,212.355,117.896,220.155z M103.75,289.951c3.985,0,7.226-3.242,7.226-7.226v-62.569
				c0-3.984-3.242-7.226-7.226-7.226H-25.736c-3.985,0-7.226,3.242-7.226,7.226v62.569c0,3.984,3.242,7.226,7.226,7.226H103.75z"/>
			<path style="opacity:0.3;fill:#FFFFFF;" d="M820.788,236.05v62.569c0,7.8-6.346,14.146-14.145,14.146H677.157
				c-7.8,0-14.145-6.346-14.145-14.146V236.05c0-7.8,6.346-14.146,14.145-14.146h129.487
				C814.443,221.904,820.788,228.25,820.788,236.05z M806.643,305.846c3.985,0,7.226-3.242,7.226-7.226V236.05
				c0-3.984-3.241-7.226-7.226-7.226H677.157c-3.985,0-7.226,3.242-7.226,7.226v62.569c0,3.984,3.242,7.226,7.226,7.226H806.643z"/>
			<path style="opacity:0.3;fill:#FFFFFF;" d="M448.279-9.785c0-7.648-6.2-13.848-13.848-13.848H266.629
				c-7.648,0-13.848,6.2-13.848,13.848v81.084c0,7.648,6.2,13.848,13.848,13.848h167.802c7.648,0,13.848-6.2,13.848-13.848V-9.785z"
				/>
			<path style="opacity:0.2;fill:#FFFFFF;" d="M679.182,252.727c0-7.083-5.741-12.824-12.824-12.824H510.962
				c-7.083,0-12.824,5.741-12.824,12.824v75.089c0,7.082,5.741,12.824,12.824,12.824h155.396c7.082,0,12.824-5.741,12.824-12.824
				V252.727z"/>
			<path style="opacity:0.2;fill:#FFFFFF;" d="M87.867,217.592c0-7.648-6.2-13.848-13.848-13.848H-93.783
				c-7.648,0-13.848,6.2-13.848,13.848v81.084c0,7.648,6.2,13.848,13.848,13.848H74.019c7.648,0,13.848-6.2,13.848-13.848V217.592z"
				/>
			<path style="opacity:0.3;fill:#FFFFFF;" d="M741.9,141.239c0-6.751-5.473-12.224-12.224-12.224H581.543
				c-6.751,0-12.224,5.473-12.224,12.224v71.579c0,6.751,5.473,12.225,12.224,12.225h148.132c6.751,0,12.224-5.473,12.224-12.225
				V141.239z"/>
			<path style="opacity:0.2;fill:#FFFFFF;" d="M1034.924,101.544c0-7.477-6.061-13.537-13.537-13.537h-164.04
				c-7.477,0-13.537,6.061-13.537,13.537v79.266c0,7.476,6.061,13.537,13.537,13.537h164.04c7.477,0,13.537-6.061,13.537-13.537
				V101.544z"/>
			<path style="opacity:0.3;fill:#FFFFFF;" d="M960.315-21.953c0-6.173-5.004-11.177-11.177-11.177H813.697
				c-6.173,0-11.177,5.004-11.177,11.177v65.446c0,6.173,5.004,11.177,11.177,11.177h135.441c6.173,0,11.177-5.004,11.177-11.177
				V-21.953z"/>
			<path style="opacity:0.2;fill:#FFFFFF;" d="M922.706,285.817c0-6.173-5.004-11.177-11.177-11.177H776.089
				c-6.173,0-11.177,5.004-11.177,11.177v65.446c0,6.173,5.004,11.177,11.177,11.177h135.441c6.173,0,11.177-5.004,11.177-11.177
				V285.817z"/>
			<path style="opacity:0.2;fill:#FFFFFF;" d="M450.532,264.147c0-6.173-5.004-11.177-11.177-11.177H303.914
				c-6.173,0-11.177,5.004-11.177,11.177v65.446c0,6.173,5.004,11.177,11.177,11.177h135.441c6.173,0,11.177-5.004,11.177-11.177
				V264.147z"/>
			<path style="opacity:0.3;fill:#FFFFFF;" d="M663.44-11.661c0-6.416-5.201-11.618-11.618-11.618h-140.78
				c-6.416,0-11.618,5.201-11.618,11.618v68.026c0,6.416,5.201,11.618,11.618,11.618h140.78c6.416,0,11.618-5.201,11.618-11.618
				V-11.661z"/>
			<path style="opacity:0.2;fill:#FFFFFF;" d="M453.642,123.358c0-6.416-5.201-11.618-11.618-11.618h-140.78
				c-6.416,0-11.618,5.201-11.618,11.618v68.026c0,6.416,5.201,11.618,11.618,11.618h140.78c6.416,0,11.618-5.201,11.618-11.618
				V123.358z"/>
			<path style="opacity:0.2;fill:#FFFFFF;" d="M267.837,217.426c0-6.416-5.202-11.618-11.618-11.618h-140.78
				c-6.416,0-11.618,5.201-11.618,11.618v68.026c0,6.416,5.201,11.618,11.618,11.618h140.78c6.416,0,11.618-5.202,11.618-11.618
				V217.426z"/>
			<path style="opacity:0.3;fill:#FFFFFF;" d="M463.33,79.055c0-5.704-4.624-10.327-10.327-10.327h-125.14
				c-5.703,0-10.327,4.624-10.327,10.327v60.469c0,5.703,4.624,10.327,10.327,10.327h125.14c5.703,0,10.327-4.624,10.327-10.327
				V79.055z"/>
			<path style="opacity:0.2;fill:#FFFFFF;" d="M1166.911,273.889c0-4.413-3.577-7.99-7.99-7.99h-96.82
				c-4.413,0-7.99,3.577-7.99,7.99v46.784c0,4.413,3.577,7.99,7.99,7.99h96.82c4.413,0,7.99-3.577,7.99-7.99V273.889z"/>
			<path style="opacity:0.3;fill:#FFFFFF;" d="M1074.332,1.967c0-5.204-4.219-9.422-9.422-9.422H950.733
				c-5.204,0-9.422,4.219-9.422,9.422v55.171c0,5.204,4.219,9.422,9.422,9.422h114.176c5.204,0,9.422-4.219,9.422-9.422V1.967z"/>
			<path style="opacity:0.2;fill:#FFFFFF;" d="M561.767,216.508c0-4.878-3.954-8.832-8.832-8.832H445.914
				c-4.878,0-8.832,3.954-8.832,8.832v51.714c0,4.878,3.954,8.832,8.832,8.832h107.021c4.878,0,8.832-3.954,8.832-8.832V216.508z"/>
			<path style="opacity:0.2;fill:#FFFFFF;" d="M765.639-36.886c0-4.045-3.279-7.325-7.325-7.325h-88.758
				c-4.045,0-7.325,3.279-7.325,7.325V6.003c0,4.045,3.279,7.325,7.325,7.325h88.758c4.045,0,7.325-3.279,7.325-7.325V-36.886z"/>
			<path style="opacity:0.3;fill:#FFFFFF;" d="M615,53.697c0-5.091-4.127-9.218-9.218-9.218H494.084
				c-5.091,0-9.218,4.127-9.218,9.218v53.974c0,5.091,4.127,9.218,9.218,9.218h111.698c5.091,0,9.218-4.127,9.218-9.218V53.697z"/>
			<path style="opacity:0.2;fill:#FFFFFF;" d="M1074.855,168.173c0-4.878-3.954-8.832-8.832-8.832H959.002
				c-4.878,0-8.832,3.954-8.832,8.832v51.714c0,4.878,3.954,8.832,8.832,8.832h107.021c4.878,0,8.832-3.954,8.832-8.832V168.173z"/>
			<path style="opacity:0.3;fill:#FFFFFF;" d="M738.612,239.186c0-4.413-3.577-7.99-7.99-7.99h-96.82c-4.413,0-7.99,3.577-7.99,7.99
				v46.785c0,4.413,3.577,7.99,7.99,7.99h96.82c4.413,0,7.99-3.577,7.99-7.99V239.186z"/>
			<path style="opacity:0.3;fill:#FFFFFF;" d="M1064.556,71.806c0-3.919-3.177-7.095-7.096-7.095h-85.981
				c-3.919,0-7.096,3.177-7.096,7.095v41.547c0,3.919,3.177,7.095,7.096,7.095h85.981c3.919,0,7.096-3.177,7.096-7.095V71.806z"/>
			<path style="opacity:0.3;fill:#FFFFFF;" d="M721.222,51.291c0-3.289-2.667-5.956-5.956-5.956h-72.169
				c-3.289,0-5.956,2.667-5.956,5.956v34.873c0,3.289,2.667,5.956,5.956,5.956h72.169c3.289,0,5.956-2.666,5.956-5.956V51.291z"/>
			<path style="opacity:0.3;fill:#FFFFFF;" d="M552.377,23.761c0-5.507-4.465-9.972-9.972-9.972H421.573
				c-5.507,0-9.972,4.464-9.972,9.972v58.387c0,5.507,4.464,9.972,9.972,9.972h120.832c5.507,0,9.972-4.464,9.972-9.972V23.761z"/>
			<path style="opacity:0.3;fill:#FFFFFF;" d="M1171.344,161.82c0-4.413-3.577-7.99-7.99-7.99h-96.82c-4.413,0-7.99,3.577-7.99,7.99
				v46.784c0,4.413,3.577,7.99,7.99,7.99h96.82c4.413,0,7.99-3.577,7.99-7.99V161.82z"/>
			<path style="opacity:0.3;fill:#FFFFFF;" d="M301.606,79.404c0-4.529-3.672-8.201-8.201-8.201H194.03
				c-4.529,0-8.201,3.672-8.201,8.201v48.019c0,4.529,3.672,8.201,8.201,8.201h99.375c4.529,0,8.201-3.672,8.201-8.201V79.404z"/>
			<path style="opacity:0.3;fill:#FFFFFF;" d="M272.801,26.05c0-4.529-3.672-8.201-8.201-8.201h-99.375
				c-4.529,0-8.201,3.672-8.201,8.201v48.019c0,4.529,3.672,8.201,8.201,8.201H264.6c4.529,0,8.201-3.672,8.201-8.201V26.05z"/>
			<path style="opacity:0.3;fill:#FFFFFF;" d="M318.109,148.661c0-4.878-3.955-8.833-8.833-8.833H202.245
				c-4.878,0-8.833,3.954-8.833,8.833v51.718c0,4.878,3.954,8.833,8.833,8.833h107.031c4.878,0,8.833-3.954,8.833-8.833V148.661z"/>
			<path style="opacity:0.3;fill:#FFFFFF;" d="M976.818,61.072c0-3.494-2.833-6.327-6.327-6.327h-76.669
				c-3.494,0-6.327,2.833-6.327,6.327v37.047c0,3.494,2.833,6.327,6.327,6.327h76.669c3.494,0,6.327-2.833,6.327-6.327V61.072z"/>
			<path style="opacity:0.3;fill:#FFFFFF;" d="M41.109,118.808c0-4.912-3.982-8.893-8.893-8.893H-75.548
				c-4.912,0-8.893,3.982-8.893,8.893v52.073c0,4.911,3.982,8.893,8.893,8.893H32.216c4.911,0,8.893-3.982,8.893-8.893V118.808z"/>
			<path style="opacity:0.3;fill:#FFFFFF;" d="M371.634,53.441c0-3.736-3.029-6.766-6.766-6.766h-81.982
				c-3.737,0-6.766,3.029-6.766,6.766v39.615c0,3.736,3.029,6.765,6.766,6.765h81.982c3.737,0,6.766-3.029,6.766-6.765V53.441z"/>
			<path style="opacity:0.2;fill:#FFFFFF;" d="M1189.503-18.162c0-5.834-4.729-10.563-10.563-10.563h-127.994
				c-5.834,0-10.563,4.729-10.563,10.563v61.848c0,5.833,4.729,10.563,10.563,10.563h127.994c5.834,0,10.563-4.729,10.563-10.563
				V-18.162z"/>
			<path style="opacity:0.3;fill:#FFFFFF;" d="M1036.615,246.13c0-5.834-4.729-10.563-10.563-10.563H898.058
				c-5.834,0-10.563,4.729-10.563,10.563v61.848c0,5.834,4.729,10.563,10.563,10.563h127.994c5.834,0,10.563-4.729,10.563-10.563
				V246.13z"/>
			<path style="opacity:0.2;fill:#FFFFFF;" d="M309.214,0.838c0-5.834-4.729-10.563-10.563-10.563H170.657
				c-5.834,0-10.563,4.729-10.563,10.563v61.848c0,5.834,4.729,10.563,10.563,10.563h127.994c5.834,0,10.563-4.729,10.563-10.563
				V0.838z"/>
			<path style="opacity:0.3;fill:#FFFFFF;" d="M521.81-15.311c0-4.494-3.643-8.137-8.137-8.137h-98.605
				c-4.494,0-8.137,3.643-8.137,8.137v47.647c0,4.494,3.643,8.137,8.137,8.137h98.605c4.494,0,8.137-3.643,8.137-8.137V-15.311z"/>
			<path style="opacity:0.3;fill:#FFFFFF;" d="M542.306,155.951c0-4.494-3.643-8.137-8.137-8.137h-98.605
				c-4.494,0-8.137,3.643-8.137,8.137v47.647c0,4.494,3.643,8.137,8.137,8.137h98.605c4.494,0,8.137-3.643,8.137-8.137V155.951z"/>
			<path style="opacity:0.3;fill:#FFFFFF;" d="M807.283-3.872c0-4.494-3.643-8.137-8.137-8.137h-98.605
				c-4.494,0-8.137,3.643-8.137,8.137v47.647c0,4.494,3.643,8.137,8.137,8.137h98.605c4.494,0,8.137-3.643,8.137-8.137V-3.872z"/>
			<path style="opacity:0.2;fill:#FFFFFF;" d="M739.652,305.419c0-4.494-3.643-8.137-8.137-8.137H632.91
				c-4.494,0-8.137,3.643-8.137,8.137v47.647c0,4.494,3.643,8.137,8.137,8.137h98.605c4.494,0,8.137-3.643,8.137-8.137V305.419z"/>
			<path style="opacity:0.3;fill:#FFFFFF;" d="M383.774,194.924c0-5.834-4.729-10.563-10.563-10.563H245.217
				c-5.834,0-10.563,4.729-10.563,10.563v61.848c0,5.834,4.729,10.563,10.563,10.563h127.994c5.834,0,10.563-4.729,10.563-10.563
				V194.924z"/>
			<path style="opacity:0.3;fill:#FFFFFF;" d="M213.061-30.223c0-4.729-3.833-8.562-8.562-8.562H100.746
				c-4.729,0-8.562,3.833-8.562,8.562v50.134c0,4.729,3.833,8.562,8.562,8.562h103.752c4.729,0,8.562-3.833,8.562-8.562V-30.223z"/>
			<path style="opacity:0.3;fill:#FFFFFF;" d="M276.121-11.049c0-2.968-2.406-5.374-5.375-5.374H205.62
				c-2.968,0-5.374,2.406-5.374,5.374v31.47c0,2.968,2.406,5.375,5.374,5.375h65.126c2.968,0,5.375-2.406,5.375-5.375V-11.049z"/>
			<path style="opacity:0.3;fill:#FFFFFF;" d="M825.718-23.19c0-2.968-2.406-5.375-5.375-5.375h-65.126
				c-2.968,0-5.374,2.406-5.374,5.375v31.47c0,2.968,2.406,5.375,5.374,5.375h65.126c2.968,0,5.375-2.406,5.375-5.375V-23.19z"/>
			<path style="opacity:0.3;fill:#FFFFFF;" d="M1296.918,165.615c0-5.834-4.729-10.563-10.563-10.563h-127.994
				c-5.834,0-10.563,4.729-10.563,10.563v61.848c0,5.834,4.729,10.563,10.563,10.563h127.994c5.833,0,10.563-4.729,10.563-10.563
				V165.615z"/>
		</g>
	</g>
</g>
</svg>
